# xmcd
#
# Track frame offsets:
#	150
#	17849
#	37938
#	64940
#	78775
#	96305
#	111551
#	125643
#	142821
#	159497
#	173927
#	189416
#	208363
#	233861
#
# Disc length: 3323 seconds
# Revision: 0
# Processed by: cddbd v1.5.2PL0 Copyright (c) Steve Scherf et al.
# Submitted via: dBpowerAMP V12.0
#
DISCID=c20cf90e
DTITLE=Lil' Ronnie and the Grand Dukes - Gotta Strange Feelin'
DYEAR=2012
DGENRE=Blues Harmonica
TTITLE0=Can't Buy My Love
TTITLE1=Cold Hard Cash
TTITLE2=Love Never Dies
TTITLE3=Sweet Sue
TTITLE4=Screamin' and Cryin'
TTITLE5=She's Bad Bad News
TTITLE6=Buzz Me
TTITLE7=Fat City
TTITLE8=You Can't Please Your Wife
TTITLE9=Gotta Strange Feelin'
TTITLE10=I Won't Take It Any More
TTITLE11=Late Nite Blues
TTITLE12=Bring Your Love Home
TTITLE13=C'est La Vie
EXTD=
EXTT0=
EXTT1=
EXTT2=
EXTT3=
EXTT4=
EXTT5=
EXTT6=
EXTT7=
EXTT8=
EXTT9=
EXTT10=
EXTT11=
EXTT12=
EXTT13=
PLAYORDER=
